#!OML:ASF G:\ViconDB\ViconDB\414\test\team2\shane.ASF
:FULLY-SPECIFIED
:DEGREES
180
root 1.44495 16.5687 8.08766 -9.40251 6.53371 -5.22373
lowerback 10.8261 -4.16831 -2.66821
upperback 2.86868 -5.70334 3.64885
thorax -2.4061 -2.85561 6.01296
lowerneck -18.1655 -3.72374 -12.1279
upperneck 21.5176 -3.95893 9.15238
head 10.3095 -1.76998 4.74371
rclavicle 1.03337e-014 -8.15017e-015
rhumerus -55.4474 -5.10465 -54.2844
rradius 24.1427
rwrist 53.8939
rhand -33.7707 -10.1605
rfingers 7.12502
rthumb -6.95822 -40.0261
lclavicle -7.54388e-014 3.49861e-014
lhumerus -11.9221 -18.622 96.8217
lradius 63.4145
lwrist -16.9898
lhand -47.2785 5.68804
lfingers 7.12502
lthumb -19.975 34.6814
rfemur -22.1035 -23.1654 20.5321
rtibia 29.938
rfoot -23.3527 8.47213
rtoes -15.6496
lfemur 30.3336 3.47286 -8.28601
ltibia -1.20861e-013
lfoot -22.5535 -22.2932
ltoes -9.38704
181
root 1.42097 16.5323 8.30561 -9.51735 6.74731 -5.27361
lowerback 10.9602 -4.29718 -2.57559
upperback 2.8807 -5.86404 3.6862
thorax -2.45288 -2.93494 6.02992
lowerneck -18.1338 -3.6363 -11.9446
upperneck 21.3985 -3.83297 8.93872
head 10.2367 -1.72025 4.6483
rclavicle 1.03337e-014 -8.15017e-015
rhumerus -55.4474 -5.10465 -54.2844
rradius 24.1427
rwrist 53.8939
rhand -33.7707 -10.1605
rfingers 7.12502
rthumb -6.95822 -40.0261
lclavicle -7.54388e-014 3.49861e-014
lhumerus -11.9221 -18.622 96.8217
lradius 63.4145
lwrist -16.9898
lhand -47.2785 5.68804
lfingers 7.12502
lthumb -19.975 34.6814
rfemur -22.4443 -24.5526 20.9944
rtibia 29.705
rfoot -23.6507 8.75973
rtoes -15.3712
lfemur 31.1835 2.864 -8.20494
ltibia -2.54444e-014
lfoot -22.941 -21.9223
ltoes -10.5449
182
root 1.39505 16.4983 8.52484 -9.63753 7.14761 -5.49059
lowerback 11.0963 -4.44004 -2.28463
upperback 2.90068 -6.01726 3.81386
thorax -2.50429 -3.01095 6.03056
lowerneck -18.3836 -3.74685 -12.0347
upperneck 21.5241 -3.88779 8.74412
head 10.335 -1.77158 4.5873
rclavicle -9.68951e-014 2.06736e-014
rhumerus -64.7159 -0.354744 -44.8067
rradius 26.758
rwrist 48.6112
rhand -32.9964 -9.33223
rfingers 7.12502
rthumb -6.2107 -39.2212
lclavicle -9.68951e-014 2.06736e-014
lhumerus -6.68143 -28.6907 93.8392
lradius 71.9395
lwrist -16.999
lhand -47.6691 5.49574
lfingers 7.12502
lthumb -20.3504 34.4495
rfemur -22.4579 -25.0209 21.3404
rtibia 29.6398
rfoot -23.6971 8.47841
rtoes -14.733
lfemur 31.9477 2.01801 -7.93427
ltibia -4.77083e-014
lfoot -22.9577 -21.7508
ltoes -11.6063
183
root 1.35975 16.4632 8.75053 -9.66769 7.47116 -5.57471
lowerback 11.1377 -4.54798 -2.31477
upperback 2.85405 -6.16013 3.92419
thorax -2.54276 -3.08114 6.18672
lowerneck -18.3668 -3.73467 -12.0277
upperneck 21.4873 -3.84875 8.64987
head 10.3121 -1.76367 4.55591
rclavicle -1.89839e-014 1.51076e-014
rhumerus -65.4249 0.00536241 -43.7244
rradius 26.577
rwrist 49.2143
rhand -32.9238 -9.43303
rfingers 7.12502
rthumb -6.14064 -39.324
lclavicle -1.89839e-014 1.51076e-014
lhumerus -6.17515 -28.9367 93.5641
lradius 72.606
lwrist -17.2399
lhand -47.5247 5.70359
lfingers 7.12502
lthumb -20.2116 34.6721
rfemur -22.2931 -25.2217 21.5452
rtibia 29.6823
rfoot -23.5845 8.13782
rtoes -14.8105
lfemur 32.6541 1.28125 -7.78674
ltibia 0
lfoot -22.9523 -21.6167
ltoes -12.8968
184
root 1.32254 16.4223 8.98265 -9.79674 7.81036 -5.84335
lowerback 11.1953 -4.63796 -2.07926
upperback 2.82451 -6.24787 4.04519
thorax -2.60615 -3.12329 6.20036
lowerneck -18.3839 -3.83752 -12.1548
upperneck 21.5222 -3.96344 8.68173
head 10.3458 -1.82345 4.57326
rclavicle 6.25923e-014 -1.74931e-014
rhumerus -66.0121 0.0700171 -42.537
rradius 26.0808
rwrist 49.7307
rhand -32.9237 -9.23874
rfingers 7.12502
rthumb -6.14055 -39.1298
lclavicle 6.25923e-014 -1.74931e-014
lhumerus -5.839 -29.2016 93.4977
lradius 72.9988
lwrist -17.4425
lhand -47.7353 5.71548
lfingers 7.12502
lthumb -20.414 34.6624
rfemur -21.7649 -25.0337 21.77
rtibia 29.8334
rfoot -23.3045 7.98268
rtoes -14.6135
lfemur 33.4215 0.468317 -7.43807
ltibia -4.45278e-014
lfoot -22.7405 -21.5298
ltoes -14.7017
185
root 1.28745 16.3878 9.21772 -9.80599 8.2046 -5.93936
lowerback 11.1571 -4.74772 -2.0122
upperback 2.71737 -6.381 4.14217
thorax -2.67746 -3.18642 6.28319
lowerneck -18.448 -3.8392 -12.1497
upperneck 21.7539 -3.93195 8.52938
head 10.4351 -1.82827 4.52721
rclavicle 7.46561e-014 -2.38542e-014
rhumerus -66.5471 -0.0136835 -41.0592
rradius 25.6254
rwrist 50.7075
rhand -32.9166 -9.07213
rfingers 7.12502
rthumb -6.13367 -38.9633
lclavicle 7.46561e-014 -2.38542e-014
lhumerus -5.69085 -29.1621 93.65
lradius 73.0561
lwrist -17.9384
lhand -47.7632 5.46246
lfingers 7.12502
lthumb -20.4408 34.4065
rfemur -21.1489 -24.6121 21.7371
rtibia 30.1243
rfoot -23.2043 7.79507
rtoes -15.2581
lfemur 34.0705 -0.354183 -7.26336
ltibia 9.54166e-015
lfoot -22.1725 -21.673
ltoes -15.9616
